<?xml version="1.0" ?><svg data-name="Layer 1" id="Layer_1" viewBox="0 0 64 64" xmlns="http://www.w3.org/2000/svg"><defs><style>.cls-1{fill:none;stroke:#37a849;stroke-linecap:round;stroke-linejoin:round;stroke-width:2px;}</style></defs><title/><polygon class="cls-1" points="25 11 10 15 10 53 25 49 25 11"/><polyline class="cls-1" points="34.17 13.5 25 11 25 49 40 53 40 26.44"/><polyline class="cls-1" points="40 26.44 40 53 55 49 55 26.44"/><path class="cls-1" d="M47.5,5.55h0a9.21,9.21,0,0,1,9.21,9.21v0A9.21,9.21,0,0,1,47.5,24H38.29a0,0,0,0,1,0,0V14.77A9.21,9.21,0,0,1,47.5,5.55Z" transform="translate(3.47 37.92) rotate(-45.01)"/><circle class="cls-1" cx="47.5" cy="14.68" r="4.28"/></svg>